<svg xmlns="http://www.w3.org/2000/svg" width="278" height="407" fill="none"><path fill="#00BA0C" d="M9.46 177C45 248.5 114 306 144 407c29.5-106.5 74.5-132.5 124.46-230.5C304.96 81.5 215 0 144 0 24.0002 0-20.0399 104.5 9.46 177Z"/><circle cx="138.96" cy="137.5" r="118" fill="#fff"/><circle cx="138.96" cy="137.5" r="109" stroke="#00BA0C" stroke-width="5"/><path fill="#00BA0C" d="M138.96 169.5H97.0642c-.7273 0-1.4541.149-2.0906.501-12.6847 7.014-12.6847 29.984 0 36.998.6365.352 1.3633.501 2.0906.501H138.96c2.762 0 5-2.239 5-5v-28c0-2.761-2.238-5-5-5ZM112.369 111.832l20.948-36.2825c.364-.6299.598-1.3338.611-2.061.268-14.4924-19.624-25.9772-32.041-18.4991-.623.3753-1.115.9302-1.479 1.5601L79.4601 92.8324c-1.3807 2.3914-.5614 5.4494 1.8301 6.8301l24.2488 13.9995c2.391 1.381 5.449.562 6.83-1.83ZM173.46 118.83l20.948 36.283c.364.63.856 1.185 1.479 1.56 12.417 7.478 32.309-4.007 32.041-18.499-.013-.727-.247-1.431-.611-2.061l-20.948-36.2829c-1.381-2.3914-4.439-3.2108-6.83-1.8301l-24.249 14c-2.391 1.381-3.211 4.439-1.83 6.83Z"/><path fill="#00BA0C" d="M155.66 91.6471C141.465 66.4728 139.293 53.3832 119.96 50c48.236-6.4315 61.969 12.9601 68.071 23.6644.82 1.4394 2.631 1.9569 4.078 1.1499l11.743-6.5492c.458-.2552.95.2756.661.7125L182.495 102.26a.4962.4962 0 0 1-.412.224l-38.236.32c-.518.005-.7-.684-.248-.936l10.912-6.0862c1.464-.8162 1.972-2.6751 1.149-4.1347ZM96.8088 142.192c-15.0296 24.685-25.3891 32.975-18.8954 51.496-29.1789-38.944-18.969-60.401-12.6106-70.954.855-1.42.4221-3.252-.989-4.12l-11.452-7.047c-.4462-.274-.2235-.963.2989-.924l39.7969 2.949a.498.498 0 0 1 .3972.251l18.9602 33.205c.257.449-.255.945-.696.673l-10.641-6.547c-1.4276-.879-3.2978-.414-4.1692 1.018ZM170.234 167.658c28.897.454 41.293 5.186 53.973-9.795-18.797 44.886-42.469 46.952-54.79 46.817-1.656-.019-3.017 1.283-3.051 2.939l-.274 13.444c-.011.523-.717.68-.949.21l-17.617-35.806a.5043.5043 0 0 1 .015-.47l19.025-33.168c.258-.45.944-.259.934.259l-.255 12.492c-.035 1.675 1.314 3.052 2.989 3.078Z"/></svg>