<svg xmlns="http://www.w3.org/2000/svg" width="40" height="40" fill="none">
  <circle cx="20" cy="20" r="20" fill="#FDC400"/>
  <g clip-path="url(#a)">
    <path fill="#505050" stroke="#505050" d="M22.4372 25.003c1.189-.7268 1.9531-1.5452 2.4501-2.353.5575-.9061.7619-1.7715.8753-2.4149l.1753-.9955-.8976.4647c-.3402.1762-.824.2525-1.3314.2054h-.0002c-1.2576-.1165-2.2344-1.1451-2.2344-2.4097a2.4166 2.4166 0 0 1 2.4167-2.4166c.75 0 1.4752.3467 1.9259.8252l-3.3797 9.0944Zm0 0 .2221.3426c2.6273-1.2825 4.3408-3.6399 4.3408-6.1881 0-1.5369-.4167-2.4348-1.1831-3.2488l-3.3798 9.0943Zm-3.7704-5.8455c0 2.5482-1.7136 4.9056-4.3408 6.1881l-.2221-.3426c1.189-.7268 1.9531-1.5452 2.4501-2.353.5575-.9061.7619-1.7715.8752-2.4149l.1754-.9955-.8977.4647c-.3402.1762-.8239.2525-1.3314.2054h-.0001c-1.2574-.1164-2.2336-1.145-2.2336-2.4097a2.4166 2.4166 0 0 1 2.4167-2.4166c.7304 0 1.4373.3289 1.8901.788l.035.0372c.7664.814 1.1832 1.712 1.1832 3.2489Z"/>
  </g>
  <defs>
    <clipPath id="a">
      <path fill="#fff" d="M10 10h20v20H10z"/>
    </clipPath>
  </defs>
</svg>
