<svg aria-hidden="true" style="position:absolute;width:0;height:0;overflow:hidden" xmlns="http://www.w3.org/2000/svg">
<defs>
<symbol id="icon-burger2" viewBox="0 0 46 32">
<path fill="#006940" stroke="#006940" style="stroke:var(--color1, #006940)" stroke-width="2.286" d="M0 2.286h45.714M0 16h45.714M0 29.714h45.714"/>
</symbol>
<symbol id="icon-burger" viewBox="0 0 38 32">
<path stroke-linejoin="miter" stroke-linecap="round" stroke-miterlimit="4" stroke-width="6.0875" d="M3.663 28.338h30.927M3.663 15.999h30.927M3.663 3.66h30.927"></path>
</symbol>
<symbol id="icon-burger-original" viewBox="0 0 38 32">
<path fill="none" stroke="#006940" style="stroke: var(--color1, #006940)" stroke-linejoin="miter" stroke-linecap="round" stroke-miterlimit="4" stroke-width="6.0875" d="M3.663 28.338h30.927M3.663 15.999h30.927M3.663 3.66h30.927"></path>
</symbol>
<symbol id="icon-close" viewBox="0 0 32 32">
<path fill="none" stroke="#fff" style="stroke:var(--color2, #fff)" stroke-width="2" d="m2.519 2 26.963 28M2 29.481 30 2.518"/>
</symbol>
<symbol id="icon-facebook" viewBox="0 0 16 32">
<path fill="#fff" style="fill:var(--color2, #fff)" d="M14.266 15.97H10.09v15.39H3.763V15.97H.754v-5.409h3.009v-3.5c0-2.503 1.182-6.422 6.384-6.422l4.687.02v5.25h-3.401c-.558 0-1.342.28-1.342 1.474v3.183h4.729l-.553 5.403z"/>
</symbol>
<symbol id="icon-telegram" viewBox="0 0 40 32">
<path fill="#fff" style="fill:var(--color2, #fff)" d="m16.205 20.751-.635 8.339c.909 0 1.302-.364 1.774-.802l4.261-3.801 8.829 6.035c1.619.842 2.76.399 3.197-1.39l5.797-25.346c.514-2.234-.866-3.108-2.443-2.56L2.92 13.398c-2.325.842-2.29 2.052-.395 2.6l8.709 2.528L31.463 6.712c.952-.588 1.818-.263 1.106.326L16.205 20.751z"/>
</symbol>
</defs></svg>