<svg aria-hidden="true" style="position:absolute;width:0;height:0;overflow:hidden" xmlns="http://www.w3.org/2000/svg">
<defs>
<symbol id="icon-burger2" viewBox="0 0 46 32">
<path fill="#006940" stroke="#006940" style="stroke:var(--color1, #006940)" stroke-width="2.286" d="M0 2.286h45.714M0 16h45.714M0 29.714h45.714"/>
</symbol>
<symbol id="icon-burger" viewBox="0 0 38 32">
<path stroke-linejoin="miter" stroke-linecap="round" stroke-miterlimit="4" stroke-width="6.0875" d="M3.663 28.338h30.927M3.663 15.999h30.927M3.663 3.66h30.927"></path>
</symbol>
<symbol id="icon-burger-original" viewBox="0 0 38 32">
<path fill="none" stroke="#006940" style="stroke: var(--color1, #006940)" stroke-linejoin="miter" stroke-linecap="round" stroke-miterlimit="4" stroke-width="6.0875" d="M3.663 28.338h30.927M3.663 15.999h30.927M3.663 3.66h30.927"></path>
</symbol>
<symbol id="icon-close" viewBox="0 0 32 32">
<path fill="none" stroke="#fff" style="stroke:var(--color2, #fff)" stroke-width="2" d="m2.519 2 26.963 28M2 29.481 30 2.518"/>
</symbol>
<symbol id="icon-facebook" viewBox="0 0 16 32">
<path fill="#fff" style="fill:var(--color2, #fff)" d="M14.266 15.97H10.09v15.39H3.763V15.97H.754v-5.409h3.009v-3.5c0-2.503 1.182-6.422 6.384-6.422l4.687.02v5.25h-3.401c-.558 0-1.342.28-1.342 1.474v3.183h4.729l-.553 5.403z"/>
</symbol>
<symbol id="icon-telegram" viewBox="0 0 40 32">
<path fill="#fff" style="fill:var(--color2, #fff)" d="m16.205 20.751-.635 8.339c.909 0 1.302-.364 1.774-.802l4.261-3.801 8.829 6.035c1.619.842 2.76.399 3.197-1.39l5.797-25.346c.514-2.234-.866-3.108-2.443-2.56L2.92 13.398c-2.325.842-2.29 2.052-.395 2.6l8.709 2.528L31.463 6.712c.952-.588 1.818-.263 1.106.326L16.205 20.751z"/>
</symbol>
<symbol id="icon-truck" viewBox="0 0 37 32">
<path fill="#fdc400" style="fill: var(--color1, #fdc400)" d="M27.151 5.998h5.091l5.091 8.109v11.883h-3.453c-0.202 1.668-0.907 3.194-1.988 4.298s-2.462 1.712-3.892 1.712-2.812-0.608-3.892-1.712c-1.080-1.104-1.786-2.63-1.988-4.298h-8.604c-0.202 1.668-0.907 3.194-1.988 4.298s-2.462 1.712-3.892 1.712c-1.43 0-2.812-0.608-3.892-1.712s-1.786-2.63-1.988-4.298h-1.756v-23.991c0-0.53 0.179-1.039 0.497-1.414s0.75-0.586 1.2-0.586h23.757c0.45 0 0.882 0.211 1.2 0.586s0.497 0.883 0.497 1.414v3.998zM27.151 9.996v5.998h6.788v-0.57l-3.407-5.428h-3.381z"></path>
</symbol>
<symbol id="icon-quotes" viewBox="0 0 32 32">
<path fill="#fdc400" style="fill: var(--color1, #fdc400)" d="M32 16c0 8.837-7.163 16-16 16s-16-7.163-16-16c0-8.837 7.163-16 16-16s16 7.163 16 16z"></path>
<path fill="#505050" style="fill: var(--color2, #505050); stroke: var(--color2, #505050)" stroke="#505050" stroke-linejoin="miter" stroke-linecap="butt" stroke-miterlimit="4" stroke-width="0.8" d="M17.95 20.002c0.951-0.581 1.562-1.236 1.96-1.882 0.446-0.725 0.61-1.417 0.7-1.932l0.14-0.796-0.718 0.372c-0.272 0.141-0.659 0.202-1.065 0.164h-0c-1.006-0.093-1.788-0.916-1.788-1.928 0-1.068 0.866-1.933 1.933-1.933 0 0 0 0 0 0v0c0.6 0 1.18 0.277 1.541 0.66l-2.704 7.276zM17.95 20.002l0.178 0.274c2.102-1.026 3.473-2.912 3.473-4.95 0-1.23-0.333-1.948-0.946-2.599l-2.704 7.275zM14.933 15.326c0 2.039-1.371 3.924-3.473 4.95l-0.178-0.274c0.951-0.581 1.562-1.236 1.96-1.882 0.446-0.725 0.61-1.417 0.7-1.932l0.14-0.796-0.718 0.372c-0.272 0.141-0.659 0.202-1.065 0.164h-0c-1.006-0.093-1.787-0.916-1.787-1.928 0-1.068 0.866-1.933 1.933-1.933 0 0 0 0 0 0v0c0.584 0 1.15 0.263 1.512 0.63l0.028 0.030c0.613 0.651 0.947 1.37 0.947 2.599z"></path>
</symbol>
</defs></svg>