<svg xmlns="http://www.w3.org/2000/svg" width="14" height="12" fill="none">
  <path fill="#FDC400" d="M10.1818 2.2491h1.9091L14 5.29v4.4563h-1.295c-.0757.6255-.3403 1.1978-.7454 1.6118-.4051.414-.9233.642-1.4596.642s-1.0546-.228-1.4596-.642c-.405-.414-.6698-.9863-.7454-1.6118H5.0686c-.0756.6255-.3403 1.1978-.7454 1.6118-.405.414-.9233.642-1.4596.642-.5362 0-1.0545-.228-1.4596-.642-.405-.414-.6697-.9863-.7454-1.6118H0V.7497C0 .551.067.3602.1864.2196.3057.079.4676 0 .6364 0h8.909c.1688 0 .3307.079.45.2196.1194.1406.1864.3313.1864.5301v1.4994Zm0 1.4994v2.2492h2.5455V5.784l-1.2778-2.0355h-1.2677Z"/>
</svg>
